#!OML:ASF X:\für Bonn\!DataBase\2005_08_11_Bastian_Final\c3d\Bastian.ASF
:FULLY-SPECIFIED
:DEGREES
451
root -0.16737 1.40102 25.8676 -989.318 -3.09816 -900.854
lowerback 47.3046 4.65995 7.43028
upperback 25.8116 -4.62291 1.31823
thorax 9.16199 -8.36572 -1.8727
lowerneck -6.02682 -4.33998 -5.43032
upperneck 20.7125 -4.53454 1.79304
head 7.52977 -1.9784 1.17521
rclavicle 6.08778e-015 -7.7526e-015
rhumerus -34.0214 37.44 -75.8966
rradius 43.8766
rwrist 10.9073
rhand -46.6058 5.97202
rfingers 7.12502
rthumb -19.3283 -23.0874
lclavicle 6.08778e-015 -7.7526e-015
lhumerus -219.457 -170.067 254.718
lradius 50.3525
lwrist 9.28834
lhand -34.1086 -23.0549
lfingers 7.12502
lthumb -7.28438 6.79972
rfemur -23.4731 1.36483 23.4451
rtibia 49.6067
rfoot 15.9055 -4.091
rtoes -12.8726
lfemur -38.8454 9.27797 -20.0203
ltibia 80.4468
lfoot 13.3347 5.06591
ltoes 8.80294
452
root -0.164869 1.3972 25.8682 -989.622 -3.09279 -900.967
lowerback 45.7695 4.7383 7.23714
upperback 26.7518 -4.60496 1.38071
thorax 9.53615 -8.31946 -1.93821
lowerneck -5.69437 -4.35462 -5.44105
upperneck 20.8717 -4.50144 1.67342
head 7.51982 -1.95663 1.14875
rclavicle -2.13694e-014 -7.7526e-015
rhumerus -34.001 36.7034 -75.8177
rradius 43.9521
rwrist 11.6442
rhand -46.794 5.77619
rfingers 7.12502
rthumb -19.5093 -23.265
lclavicle -2.13694e-014 -7.7526e-015
lhumerus -219.594 -170.558 254.779
lradius 50.3069
lwrist 8.96611
lhand -34.1077 -23.5087
lfingers 7.12502
lthumb -7.28349 6.34597
rfemur -22.9124 1.35453 23.4402
rtibia 49.2001
rfoot 15.8398 -4.34913
rtoes -12.2916
lfemur -37.6916 9.19211 -19.9268
ltibia 78.7032
lfoot 13.0213 5.45378
ltoes 8.94499
453
root -0.162843 1.39361 25.8672 -989.938 -3.10735 -901.079
lowerback 45.3434 4.72431 7.16003
upperback 26.8108 -4.58826 1.36293
thorax 9.70053 -8.2818 -1.95893
lowerneck -5.36285 -4.37781 -5.44825
upperneck 21.0378 -4.4787 1.55295
head 7.51269 -1.93876 1.12056
rclavicle -1.9133e-014 -3.18055e-015
rhumerus -33.982 35.8605 -75.6926
rradius 44.0896
rwrist 12.3019
rhand -46.8624 5.85826
rfingers 7.12502
rthumb -19.575 -23.1763
lclavicle -1.9133e-014 -3.18055e-015
lhumerus -219.683 -171.103 254.802
lradius 50.2484
lwrist 8.55041
lhand -34.0375 -23.8927
lfingers 7.12502
lthumb -7.21576 5.96428
rfemur -22.3446 1.34482 23.4073
rtibia 48.8117
rfoot 15.7243 -4.60049
rtoes -11.6872
lfemur -36.5176 9.1211 -19.8579
ltibia 76.9368
lfoot 12.6847 5.82346
ltoes 8.53255
454
root -0.16061 1.3898 25.8623 -990.231 -3.10233 -901.193
lowerback 44.9056 4.70241 7.08738
upperback 26.8471 -4.56293 1.34371
thorax 9.84139 -8.23097 -1.98114
lowerneck -4.95014 -4.40157 -5.46443
upperneck 21.1628 -4.45893 1.43964
head 7.47813 -1.92147 1.09751
rclavicle -3.23025e-016 1.98785e-016
rhumerus -34.0687 35.0066 -75.5625
rradius 44.3654
rwrist 12.9282
rhand -46.7654 6.04698
rfingers 7.12502
rthumb -19.4818 -22.997
lclavicle -3.23025e-016 1.98785e-016
lhumerus -219.812 -171.713 254.787
lradius 50.225
lwrist 7.94585
lhand -33.9789 -24.2525
lfingers 7.12502
lthumb -7.15917 5.60643
rfemur -21.8243 1.30996 23.4023
rtibia 48.4484
rfoot 15.6181 -4.82069
rtoes -11.115
lfemur -35.3575 9.05404 -19.7691
ltibia 75.1687
lfoot 12.3108 6.21671
ltoes 7.58387
455
root -0.158292 1.38609 25.8583 -990.525 -3.0956 -901.296
lowerback 44.454 4.6779 7.02125
upperback 26.9025 -4.5506 1.32394
thorax 10.012 -8.19029 -2.00903
lowerneck -4.5798 -4.41455 -5.4525
upperneck 21.2636 -4.42824 1.31249
head 7.44173 -1.89971 1.06519
rclavicle 1.14798e-014 -1.07344e-014
rhumerus -34.1149 34.1938 -75.4066
rradius 44.695
rwrist 13.3982
rhand -46.5617 6.38185
rfingers 7.12502
rthumb -19.2859 -22.6818
lclavicle 1.14798e-014 -1.07344e-014
lhumerus -219.862 -172.434 254.726
lradius 50.1721
lwrist 7.21767
lhand -33.9217 -24.5765
lfingers 7.12502
lthumb -7.10397 5.2843
rfemur -21.3063 1.26183 23.4044
rtibia 48.0987
rfoot 15.4721 -5.00445
rtoes -10.7331
lfemur -34.1834 8.98075 -19.6794
ltibia 73.385
lfoot 11.954 6.56132
ltoes 6.50299
456
root -0.156531 1.3821 25.8539 -990.819 -3.08871 -901.41
lowerback 44.0194 4.65204 6.96784
upperback 26.9438 -4.52643 1.2949
thorax 10.1628 -8.13765 -2.0522
lowerneck -4.18614 -4.42809 -5.42649
upperneck 21.3674 -4.4013 1.2022
head 7.40228 -1.87562 1.03629
rclavicle 6.65929e-015 7.15625e-015
rhumerus -34.1979 33.2933 -75.2587
rradius 45.0805
rwrist 13.7956
rhand -46.1994 6.88753
rfingers 7.12502
rthumb -18.9374 -22.2106
lclavicle 6.65929e-015 7.15625e-015
lhumerus -219.908 -173.146 254.629
lradius 50.1448
lwrist 6.42246
lhand -33.8927 -24.8147
lfingers 7.12502
lthumb -7.07597 5.04701
rfemur -20.7965 1.22322 23.4054
rtibia 47.7609
rfoot 15.3189 -5.15995
rtoes -10.5687
lfemur -33.0239 8.91571 -19.5908
ltibia 71.6171
lfoot 11.5901 6.90947
ltoes 5.11068
457
root -0.154428 1.3781 25.8502 -991.101 -3.1078 -901.522
lowerback 43.5855 4.63424 6.86635
upperback 26.972 -4.50105 1.26919
thorax 10.2981 -8.08809 -2.06449
lowerneck -3.77223 -4.4457 -5.39191
upperneck 21.4575 -4.37194 1.04683
head 7.3537 -1.8529 0.991818
rclavicle 1.64494e-014 4.37326e-015
rhumerus -34.2615 32.4376 -75.0878
rradius 45.4487
rwrist 14.2322
rhand -45.75 7.34202
rfingers 7.12502
rthumb -18.5052 -21.7978
lclavicle 1.64494e-014 4.37326e-015
lhumerus -219.917 -173.879 254.536
lradius 50.079
lwrist 5.60488
lhand -33.8824 -25.0582
lfingers 7.12502
lthumb -7.06609 4.80388
rfemur -20.3042 1.1635 23.381
rtibia 47.4327
rfoot 15.146 -5.2646
rtoes -10.793
lfemur -31.8726 8.85704 -19.541
ltibia 69.8426
lfoot 11.2339 7.22279
ltoes 3.57729
458
root -0.15267 1.37342 25.8449 -991.383 -3.10121 -901.637
lowerback 43.1621 4.61202 6.81118
upperback 27.0032 -4.46855 1.242
thorax 10.4384 -8.03021 -2.10402
lowerneck -3.37831 -4.46314 -5.34326
upperneck 21.5166 -4.35565 0.929376
head 7.29931 -1.83371 0.955803
rclavicle -1.55549e-014 -7.55382e-015
rhumerus -34.3009 31.5229 -74.9133
rradius 45.8384
rwrist 14.6076
rhand -45.1639 7.85437
rfingers 7.12502
rthumb -17.9414 -21.3381
lclavicle -1.55549e-014 -7.55382e-015
lhumerus -219.947 -174.52 254.444
lradius 50.1087
lwrist 4.82983
lhand -33.9311 -25.2608
lfingers 7.12502
lthumb -7.1131 4.59965
rfemur -19.8212 1.1047 23.3855
rtibia 47.1169
rfoot 14.9378 -5.36575
rtoes -11.1715
lfemur -30.7252 8.79488 -19.456
ltibia 68.0737
lfoot 10.9026 7.50775
ltoes 2.0875
459
root -0.151316 1.36847 25.8379 -991.643 -3.09508 -901.76
lowerback 42.7557 4.58206 6.7398
upperback 27.0038 -4.43539 1.20287
thorax 10.5358 -7.96647 -2.13995
lowerneck -2.99361 -4.48171 -5.28741
upperneck 21.627 -4.32593 0.774509
head 7.26229 -1.80756 0.907532
rclavicle -1.08338e-014 0
rhumerus -34.3483 30.7527 -74.7641
rradius 46.2134
rwrist 14.9302
rhand -44.5618 8.17403
rfingers 7.12502
rthumb -17.3619 -21.0705
lclavicle -1.08338e-014 0
lhumerus -220.087 -175.09 254.354
lradius 50.3014
lwrist 4.09646
lhand -33.9842 -25.3658
lfingers 7.12502
lthumb -7.16427 4.4929
rfemur -19.3704 1.04911 23.3873
rtibia 46.8166
rfoot 14.722 -5.46349
rtoes -11.5175
lfemur -29.5875 8.73625 -19.3766
ltibia 66.3007
lfoot 10.6117 7.79887
ltoes 1.34617
460
root -0.149829 1.36298 25.8308 -991.902 -3.08868 -901.874
lowerback 42.363 4.55673 6.66426
upperback 27.0045 -4.40157 1.17291
thorax 10.6327 -7.90643 -2.16342
lowerneck -2.62363 -4.50091 -5.21683
upperneck 21.6911 -4.30816 0.635545
head 7.21295 -1.78703 0.860561
rclavicle 2.48481e-014 -8.34896e-015
rhumerus -34.3554 29.9935 -74.6
rradius 46.5667
rwrist 15.3178
rhand -43.9534 8.31682
rfingers 7.12502
rthumb -16.7764 -20.9784
lclavicle 2.48481e-014 -8.34896e-015
lhumerus -220.187 -175.517 254.313
lradius 50.4832
lwrist 3.49241
lhand -34.0246 -25.4429
lfingers 7.12502
lthumb -7.20332 4.41452
rfemur -18.9351 0.948816 23.3927
rtibia 46.5323
rfoot 14.4892 -5.48353
rtoes -12.3021
lfemur -28.455 8.68979 -19.2963
ltibia 64.5322
lfoot 10.4142 8.04917
ltoes 1.32111
461
root -0.148931 1.35721 25.8235 -992.151 -3.08254 -901.99
lowerback 41.9785 4.51475 6.63714
upperback 27.0037 -4.36802 1.10477
thorax 10.7248 -7.83295 -2.25112
lowerneck -2.34865 -4.52305 -5.06981
upperneck 21.8407 -4.29167 0.494532
head 7.20608 -1.75938 0.798551
rclavicle 9.44227e-015 -1.47101e-014
rhumerus -34.3404 29.0702 -74.4554
rradius 46.9027
rwrist 15.9078
rhand -43.273 8.38611
rfingers 7.12502
rthumb -16.1213 -20.9634
lclavicle 9.44227e-015 -1.47101e-014
lhumerus -220.235 -175.789 254.229
lradius 50.601
lwrist 2.95762
lhand -34.0505 -25.5891
lfingers 7.12502
lthumb -7.22827 4.26746
rfemur -18.5248 0.864207 23.3951
rtibia 46.258
rfoot 14.2296 -5.49967
rtoes -13.0083
lfemur -27.3294 8.60903 -19.2153
ltibia 62.7759
lfoot 10.2389 8.31921
ltoes 1.90259
462
root -0.147446 1.35155 25.8141 -992.421 -3.07894 -902.114
lowerback 41.6565 4.48065 6.56506
upperback 26.9627 -4.32829 1.0679
thorax 10.753 -7.76546 -2.2714
lowerneck -1.98045 -4.5477 -5.02131
upperneck 21.9259 -4.27256 0.350416
head 7.16487 -1.73807 0.753765
rclavicle -1.92821e-014 1.11319e-014
rhumerus -34.4159 28.361 -74.2997
rradius 47.2879
rwrist 16.4108
rhand -42.6533 8.30573
rfingers 7.12502
rthumb -15.5244 -21.0911
lclavicle -1.92821e-014 1.11319e-014
lhumerus -220.374 -176.013 254.243
lradius 50.7762
lwrist 2.46698
lhand -34.0548 -25.6094
lfingers 7.12502
lthumb -7.2325 4.24696
rfemur -18.0914 0.764751 23.3952
rtibia 45.9958
rfoot 13.9489 -5.49737
rtoes -13.8015
lfemur -26.1663 8.53401 -19.1293
ltibia 61.0402
lfoot 10.0851 8.57492
ltoes 2.88529
463
root -0.145981 1.34544 25.806 -992.67 -3.07294 -902.23
lowerback 41.3075 4.44186 6.51181
upperback 26.9295 -4.28757 1.01848
thorax 10.799 -7.69105 -2.31807
lowerneck -1.66443 -4.56719 -4.92849
upperneck 22.0268 -4.25044 0.212609
head 7.13665 -1.71172 0.702851
rclavicle 2.71341e-014 4.37326e-015
rhumerus -34.4497 27.6073 -74.151
rradius 47.6201
rwrist 17.0407
rhand -42.0915 8.1234
rfingers 7.12502
rthumb -14.9833 -21.3146
lclavicle 2.71341e-014 4.37326e-015
lhumerus -220.476 -176.129 254.228
lradius 50.9182
lwrist 2.01159
lhand -33.9618 -25.6237
lfingers 7.12502
lthumb -7.14273 4.23581
rfemur -17.6816 0.684875 23.3989
rtibia 45.7383
rfoot 13.6712 -5.49155
rtoes -14.6834
lfemur -25.0373 8.45274 -19.0433
ltibia 59.3345
lfoot 9.98878 8.77727
ltoes 3.68132
464
root -0.144733 1.33875 25.798 -992.919 -3.06879 -902.354
lowerback 40.965 4.40067 6.45964
upperback 26.8861 -4.24397 0.96485
thorax 10.8313 -7.61241 -2.3677
lowerneck -1.34471 -4.59519 -4.86147
upperneck 22.1544 -4.23685 0.0971832
head 7.11819 -1.68762 0.663066
rclavicle 6.95746e-016 -6.36111e-015
rhumerus -34.5172 26.8628 -74.0113
rradius 47.9453
rwrist 17.6613
rhand -41.5302 7.97602
rfingers 7.12502
rthumb -14.4425 -21.5014
lclavicle 6.95746e-016 -6.36111e-015
lhumerus -220.585 -176.2 254.219
lradius 51.0495
lwrist 1.57888
lhand -33.788 -25.5867
lfingers 7.12502
lthumb -6.97488 4.27839
rfemur -17.2863 0.625838 23.4015
rtibia 45.4922
rfoot 13.411 -5.4954
rtoes -15.5362
lfemur -23.9033 8.37186 -18.9578
ltibia 57.6669
lfoot 9.8685 8.99738
ltoes 5.12424
465
root -0.144184 1.33304 25.7891 -993.144 -3.08676 -902.468
lowerback 40.5853 4.35437 6.39236
upperback 26.8513 -4.21088 0.898703
thorax 10.8847 -7.53713 -2.42414
lowerneck -1.03768 -4.61621 -4.79697
upperneck 22.2595 -4.21772 -0.0125835
head 7.09466 -1.662 0.625517
rclavicle -1.2921e-015 -3.18055e-015
rhumerus -34.5348 26.2248 -73.9057
rradius 48.1858
rwrist 18.256
rhand -41.0801 7.71058
rfingers 7.12502
rthumb -14.0088 -21.7974
lclavicle -1.2921e-015 -3.18055e-015
lhumerus -220.664 -176.247 254.194
lradius 51.1569
lwrist 1.18831
lhand -33.5208 -25.543
lfingers 7.12502
lthumb -6.71696 4.33046
rfemur -16.9144 0.556346 23.3732
rtibia 45.2552
rfoot 13.1586 -5.49901
rtoes -16.3365
lfemur -22.8075 8.28177 -18.9111
ltibia 56.0418
lfoot 9.77492 9.16272
ltoes 6.25935
